<?xml version="1.0" encoding="UTF-8"?>
<!-- Generator: Adobe Illustrator 25.2.3, SVG Export Plug-In . SVG Version: 6.00 Build 0)  -->
<svg xmlns="http://www.w3.org/2000/svg" xmlns:xlink="http://www.w3.org/1999/xlink" version="1.1" id="Capa_1" x="0px" y="0px" viewBox="0 0 511.976 511.976" style="enable-background:new 0 0 511.976 511.976;" xml:space="preserve" width="512" height="512">
<g>
	<g>
		<path style="fill:#FFFFFF;" d="M255.976,511.478c-93.257,0.049-180.795-51.306-225.245-133.459    C3.658,327.981-6.032,268.87,3.676,212.81C20.56,115.314,97.329,31.891,193.518,7.992c75.04-18.645,156.503-2.072,218.003,44.967    c62.721,47.973,100.455,124.415,100.455,203.339c0,70.824-30.64,140.793-82.841,188.697    C380.994,489.173,318.51,511.445,255.976,511.478z"/>
	</g>
	<g>
		<g>
			<path style="fill:#4F1F37;" d="M438.677,403.615l-50.163-9.062L258.465,463.36l-47.153-77.979l-154.45,6.456     c-29.457-41.997-44.211-94.598-42.31-145.732c1.648-44.333,15.861-88.102,40.432-125.028     C99.349,54.404,175.938,13.518,255.975,13.518c22.581,0,44.44,3.106,65.192,8.907c58.63,16.383,109.757,55.862,141.381,107.603     l-24.816,142.269L438.677,403.615z"/>
		</g>
		<g>
			<g>
				<g>
					<g>
						<g>
							<path style="fill:#FF7E68;" d="M389.127,362.13c-0.12,31.705-0.289,63.41-0.891,95.091         c-15.166,9.942-31.488,18.248-48.749,24.579c-26.024,9.605-54.166,14.829-83.512,14.829c-24.82,0-48.749-3.731-71.282-10.689         c-0.794-0.241-1.589-0.481-2.383-0.746c-16.418-5.248-32.066-12.205-46.727-20.679c-0.867-0.481-1.709-0.987-2.576-1.517         c-26.361-15.6-49.496-36.087-68.129-60.208c-0.891-1.131-1.757-2.263-2.6-3.418c-0.698-0.915-1.396-1.854-2.07-2.793         c-2.48-3.394-4.863-6.861-7.126-10.4c-1.059-44.151,1.035-88.616,7.752-131.852c5.922-38.157,14.372-73.858,42.37-102.338         c31.585-32.163,79.058-44.272,122.68-48.677c27.805-2.793,57.801-1.156,84.234,8.955c2.793,1.083,5.537,2.239,8.233,3.515         c9.967,4.646,19.307,10.665,27.661,18.248c18.176,16.515,29.201,39.698,35.075,63.507         C394.231,250.741,389.32,307.916,389.127,362.13z"/>
						</g>
					</g>
				</g>
				<g>
					<g>
						<g>
							<path style="fill:#FFEAE8;" d="M318.35,115.783c-93.575-13.385-173.5,4.43-215.581,48.533         c-37.627,39.457-39.361,173.885-37.892,238.475c-0.891-1.131-1.757-2.263-2.6-3.418         c-1.493-66.107,0.674-196.803,38.759-236.717c41.311-43.309,118.419-61.605,209.081-50.386         C312.91,113.352,315.654,114.507,318.35,115.783z"/>
						</g>
					</g>
				</g>
			</g>
			<g>
				<g>
					<g>
						<g>
							<path style="fill:#FF7E68;" d="M497.443,255.074c0.015,37.092-8.465,73.988-24.978,107.265         c-6.405,12.907-13.973,25.234-22.575,36.793c-2.817,3.804-5.754,7.511-8.787,11.146l-0.024,0.048         c-0.867,0.987-1.661,1.926-2.528,2.913c-10.665,12.326-22.605,23.568-35.581,33.487c-0.77,0.626-1.565,1.228-2.359,1.781         c-0.385,0.313-0.77,0.602-1.156,0.891c-0.77,0.578-1.541,1.131-2.311,1.685c-0.409,0.289-0.819,0.578-1.228,0.867         c-0.915-53.781-1.059-127.109,5.224-176.918c3.611-28.744,8.185-56.357,17.598-81.49c3.828-10.231,8.474-20.053,14.179-29.37         c2.744-4.526,5.778-8.931,9.076-13.216c0.481-0.65,1.011-1.3,1.517-1.95c4.646-5.826,9.654-11.122,14.926-15.937         c1.3-1.204,2.624-2.359,3.948-3.491c0.096,0.144,0.192,0.313,0.289,0.457c21.954,32.944,32.745,74.944,34.522,114.148         C497.359,247.813,497.442,251.444,497.443,255.074z"/>
						</g>
					</g>
				</g>
			</g>
			<g>
				<g>
					<path style="fill:#FFEAE8;" d="M466.302,135.728c-15.841,15.407-28.738,35.088-37.935,58.512       c-12.639,32.211-20.848,70.175-23.761,109.776c-3.106,42.611-3.659,89.41-1.637,142.709c-0.77,0.626-1.565,1.228-2.359,1.781       c-2.094-54.094-1.541-101.519,1.589-144.659c2.937-39.866,11.194-78.047,23.929-110.474       c9.389-23.977,22.504-44.15,38.778-59.894C465.34,134.201,465.917,135.006,466.302,135.728z"/>
				</g>
			</g>
		</g>
		<g>
			<g>
				<g>
					<g>
						<g>
							<g>
								<g>
									<path style="fill:#FFA59A;" d="M244.803,227.776c0,0,6.523,17.9,30.834,21.016c24.285,3.118,32.248-13.482,32.248-13.482           l-3.5-28.714l-0.408-24.724l-63.124-11.436L244.803,227.776z"/>
								</g>
							</g>
							<g style="opacity:0.68;">
								<g>
									<path style="fill:#4F1F37;" d="M255.351,198.652c2.755,12.127,10.31,24.028,22.048,28.139           c5.708,1.986,11.943,2.018,17.905,1.061c3.885-0.601,7.794-1.64,11.049-3.849c0.047-0.031,0.095-0.063,0.142-0.094           l-1.386-11.375C288.776,208.446,270.857,203.505,255.351,198.652z"/>
								</g>
							</g>
						</g>
						<g>
							<g>
								<path style="fill:#FFA59A;" d="M228.846,138.958c-0.913-6.192-1.241-12.467-0.517-18.291          c0.083-0.67,0.269-1.297,0.519-1.897c1.001-29.867,23.617-55.385,54.21-59.114c33.83-4.123,64.598,19.959,68.721,53.789          c0.507,4.158,0.583,8.268,0.272,12.29c0.973,18.766,0.221,73.811-17.399,86.924c-16.421,12.22-61.967,0.849-73.888-4.219          c-11.921-5.068-19.765-30.195-19.765-30.195S235.53,160.125,228.846,138.958z"/>
							</g>
						</g>
						<g>
							<g>
								<path style="fill:#FFA59A;" d="M231.31,145.707c-1.891-0.349-3.86-0.446-5.725,0.024c-3.982,1.005-6.987,4.553-8.167,8.486          c-1.18,3.933-0.765,8.187,0.264,12.162c1.015,3.923,2.736,7.854,5.902,10.384c3.515,2.808,8.265,3.476,12.763,3.554          c3.259,0.056,6.787-0.243,9.258-2.37c1.225-1.054,2.079-2.476,2.75-3.946C254.049,161.536,244.217,148.09,231.31,145.707z"/>
							</g>
						</g>
					</g>
					<g>
						<path style="fill:#4F1F37;" d="M243.282,176.247c-0.322,0-0.589-0.254-0.602-0.578c-0.277-7.029-2.521-13.37-6.318-17.853        c-4.34-5.125-10.975-7.84-16.896-6.893c-0.32,0.045-0.637-0.172-0.689-0.501c-0.052-0.329,0.173-0.637,0.501-0.689        c6.328-0.987,13.398,1.867,18.004,7.307c3.968,4.685,6.313,11.285,6.603,18.582c0.013,0.331-0.246,0.611-0.578,0.625        C243.297,176.247,243.289,176.247,243.282,176.247z"/>
					</g>
					<g>
						<g>
							<g>
								<g>
									<g>
										<g>
											<path style="fill:#4F1F37;" d="M264.473,128.614l-0.048,0.024l-1.18,0.554l-34.04,16.153l-1.107-0.65l-0.457-1.276             l35.292-16.707l0.53-0.265l0.915,1.926c0,0,0,0.024,0,0.048L264.473,128.614z"/>
										</g>
									</g>
									<g>
										<g>
											<g style="opacity:0.55;">
												<g>
													<path style="fill:#4F1F37;" d="M263.659,118.924c0,0-0.319,40.874,25.521,36.879               c25.84-3.995,23.926-40.874,23.926-40.874L263.659,118.924z"/>
												</g>
											</g>
											<g>
												<g>
													<path style="fill:#4F1F37;" d="M285.736,157.304c-4.566,0-8.56-1.457-11.912-4.354               c-11.447-9.89-11.4-33.054-11.393-34.035l0.009-1.121l51.825-4.189l0.066,1.26c0.019,0.381,1.664,38.034-24.962,42.15               C288.12,157.208,286.909,157.304,285.736,157.304z M264.904,120.056c0.141,4.716,1.293,23.067,10.528,31.042               c3.644,3.143,8.198,4.321,13.56,3.491c21.796-3.366,22.936-31.935,22.912-38.332L264.904,120.056z"/>
												</g>
											</g>
										</g>
										<g>
											<g>
												<g>
													<path style="fill:#4F1F37;" d="M345.049,151.734c-3.465,0-6.552-1.126-9.213-3.364               c-10.89-9.162-10.85-33.882-10.843-34.93l0.007-1.027l44.593-4.204l0.052,1.192c0.071,1.545,1.422,37.919-21.438,42.04               C347.123,151.636,346.07,151.734,345.049,151.734z M327.279,114.479c0.115,4.749,1.131,24.678,10.022,32.156               c2.946,2.475,6.39,3.315,10.502,2.572c18.723-3.376,19.623-32.243,19.595-38.511L327.279,114.479z"/>
												</g>
											</g>
											<g style="opacity:0.55;">
												<g>
													<path style="fill:#4F1F37;" d="M327.275,113.392c0,0-0.273,40.874,21.875,36.879               c22.149-3.995,20.508-40.874,20.508-40.874L327.275,113.392z"/>
												</g>
											</g>
										</g>
										<g>
											<g>
												<path style="fill:#4F1F37;" d="M313.435,125.891l-1.156-2.163c4.801-2.57,9.932-3.259,15.245-2.061l0.13,2.303              C322.902,122.889,317.721,123.597,313.435,125.891z"/>
											</g>
										</g>
									</g>
								</g>
								<g>
									<g>
										<g>
											<path style="fill:#4F1F37;" d="M293.777,131.985c0,3.14-1.995,5.686-4.456,5.686c-2.461,0-4.456-2.546-4.456-5.686             c0-3.14,1.995-5.686,4.456-5.686C291.782,126.3,293.777,128.845,293.777,131.985z"/>
										</g>
									</g>
									<g>
										<g>
											<ellipse style="fill:#4F1F37;" cx="340.49" cy="128.758" rx="4.456" ry="5.686"/>
										</g>
									</g>
								</g>
							</g>
							<g>
								<g>
									<g>
										<path style="fill:#4F1F37;" d="M326.635,163.299c-0.052,0-0.106-0.007-0.157-0.021l-13.955-3.762            c-0.32-0.087-0.51-0.416-0.423-0.738c0.087-0.32,0.411-0.505,0.738-0.423l13.224,3.564            c0.484-13.64,0.285-27.433-0.595-41.01c-0.024-0.334,0.228-0.618,0.559-0.64c0.378-0.068,0.621,0.23,0.639,0.56            c0.9,13.871,1.093,27.965,0.571,41.891c-0.007,0.181-0.096,0.353-0.244,0.461            C326.887,163.259,326.762,163.299,326.635,163.299z"/>
									</g>
								</g>
								<g>
									<g>
										<path style="fill:#4F1F37;" d="M321.071,172.172c-4.93,0-9.844-2.012-13.248-5.652c-0.228-0.242-0.214-0.623,0.028-0.851            c0.24-0.226,0.625-0.216,0.851,0.028c4.283,4.577,11.44,6.418,17.395,4.486c0.317-0.108,0.656,0.071,0.757,0.386            c0.104,0.315-0.068,0.656-0.385,0.757C324.717,171.897,322.893,172.172,321.071,172.172z"/>
									</g>
								</g>
							</g>
						</g>
						<g>
							<g>
								<path style="fill:#4F1F37;" d="M276.662,107.533c-0.13,0-0.261-0.042-0.37-0.127c-0.262-0.205-0.308-0.583-0.103-0.846          c3.107-3.973,8.199-6.355,13.204-6.148c0.333,0.012,0.592,0.292,0.581,0.623c-0.012,0.331-0.289,0.642-0.623,0.581          c-4.654-0.216-9.34,2.012-12.214,5.687C277.017,107.454,276.84,107.533,276.662,107.533z"/>
							</g>
							<g>
								<path style="fill:#4F1F37;" d="M347.421,103.791c-0.162,0-0.324-0.066-0.443-0.195c-2.822-3.068-7.666-4.147-11.527-2.558          c-0.303,0.127-0.658-0.021-0.785-0.329c-0.127-0.306,0.02-0.658,0.327-0.785c4.307-1.773,9.719-0.574,12.871,2.859          c0.225,0.244,0.209,0.625-0.036,0.849C347.712,103.739,347.566,103.791,347.421,103.791z"/>
							</g>
						</g>
					</g>
				</g>
				<g>
					<g>
						<path style="fill:#FFCC7A;" d="M226.499,145.546c7.063-0.2,11.654,1.005,15.502,8.149        c11.011-14.16,20.892-28.718,25.889-45.945c4.997-17.227,4.79-36.486-3.492-52.397c-8.638,2.635-18.15,6.672-25.894,11.315        c-5.87,3.52-11.561,7.74-15.127,13.582c-5.106,8.364-5.157,18.805-4.291,28.566        C220.139,120.694,223.224,134.081,226.499,145.546z"/>
					</g>
					<g>
						<path style="fill:#FFCC7A;" d="M264.813,65.865c6.459,7.507,15.961,11.596,25.276,14.959        c19.969,7.21,41.66,12.255,62.356,7.516c-1.376-12.859-10.671-23.65-22.083-29.734c-11.412-6.084-24.59-7.945-37.507-8.585        c-10.965-0.543-23.226,1.072-32.577,6.823C260.785,59.567,263.007,63.766,264.813,65.865z"/>
					</g>
				</g>
			</g>
			<g>
				<path style="fill:#6C92E5;" d="M437.732,414.153c-11.411,13.072-24.266,24.892-38.277,35.244      c-0.77,0.578-1.541,1.131-2.311,1.685c-0.409,0.289-0.819,0.578-1.228,0.867c-2.528,1.83-5.08,3.563-7.68,5.272      c-15.166,9.942-31.488,18.248-48.749,24.579c-26.024,9.605-54.166,14.829-83.512,14.829c-24.82,0-48.749-3.731-71.282-10.689      c-0.794-0.241-1.589-0.481-2.383-0.746c-16.418-5.248-32.066-12.205-46.727-20.679c-0.867-0.481-1.709-0.987-2.576-1.517      c-28.6-16.924-53.396-39.601-72.799-66.419c-1.131-1.565-2.263-3.13-3.346-4.743c7.439-43.092,25.253-120.393,58.981-136.161      c47.329-22.124,128.457-36.881,128.457-36.881s16.587,20.294,33.8,19.066c17.213-1.228,28.396-13.952,28.396-13.952      s35.52,18.261,59.497,26.254c23.978,7.968,48.557,29.49,58.403,68.827C431.184,346.169,435.638,389.791,437.732,414.153z"/>
			</g>
		</g>
		<g>
			<g>
				<path style="fill:#FFFFFF;" d="M199.644,299.989c-1.292-4.984-0.115-10.547,3.086-14.581c3.201-4.034,8.35-6.444,13.498-6.319      c1.002-5.963,2.591-11.618,5.448-16.946c2.856-5.329,7.167-10.028,12.679-12.513c4.661-2.101,9.929-2.526,15.028-2.145      c5.285,0.394,10.843,1.812,14.425,5.718c-0.76-6.833,3.785-14.135,9.409-18.09c5.624-3.955,12.626-5.475,19.489-5.895      c7.393-0.453,14.999,0.31,21.73,3.4c6.731,3.09,12.507,8.719,14.678,15.799c8.472-3.731,18.51-2.916,26.584,1.613      c3.31,1.857,6.393,4.537,7.579,8.142c3.571-1.944,8.495-1.249,12.527-0.724c4.032,0.525,7.886,1.986,11.568,3.709      c3.208,1.501,6.438,3.313,8.446,6.23c0.92,1.337,1.545,2.857,2.013,4.411c0.646,2.144,1.006,4.374,1.066,6.613      c-32.798-0.608-65.922-2.735-98.672-0.87C267.471,279.405,228.424,284.248,199.644,299.989z"/>
			</g>
			<g>
				<g>
					<polygon style="fill:#FFFFFF;" points="393.805,447.893 382.82,457.029 361.803,459.292 342.385,450.245 324.008,463.36        307.637,465.117 291.816,455.6 278.075,468.295 260.261,470.221 220.251,347.061 212.177,297.548 284.543,273.924        356.311,272.297 401.452,283.945      "/>
				</g>
				<g>
					<g>
						<path style="fill:#FF7E68;" d="M260.261,470.221l-13.289,1.42L200.317,307.41l-2.094-7.367        c6.331-4.646,15.913-8.305,19.74-2.311c3.298,5.224,3.611,14.902,5.008,20.944c1.661,7.222,3.346,14.468,5.031,21.69        c6.765,28.889,13.794,57.729,21.089,86.497C252.725,441.357,256.481,455.801,260.261,470.221z"/>
					</g>
					<g>
						<path style="fill:#FF7E68;" d="M307.637,465.117l-29.563,3.178c-1.493-14.228-3.081-28.407-4.767-42.611        c-3.707-31.537-7.92-62.977-12.566-94.369c-2.215-14.974-5.946-30.309-7.03-45.403c-0.433-5.994,1.902-7.391,7.463-8.883        c1.853-0.506,22.148-5.007,22.196-4.718c5.705,43.261,11.411,86.521,17.093,129.782        C303.232,423.037,306.001,444.029,307.637,465.117z"/>
					</g>
					<g>
						<path style="fill:#FF7E68;" d="M361.803,459.292l-37.796,4.068c-2.889-49.785-5.754-99.569-8.594-149.354        c-0.457-7.728-0.891-15.455-1.613-23.159c-0.457-4.911-2.6-11.772,0.674-16.202c2.889-3.924,8.233-3.9,12.615-4.02        c7.222-0.217,14.468-0.217,21.714-0.313C355.087,333.145,359.42,396.17,361.803,459.292z"/>
					</g>
					<g>
						<path style="fill:#FF7E68;" d="M405.473,281.844l-0.193,5.513l-5.898,167.89l-16.563,1.781        c-0.048-11.411-0.096-22.822-0.12-34.233c-0.12-29.659-0.241-59.318-0.361-88.977c-0.048-14.661-0.289-29.346-0.168-43.983        c0.048-4.598-0.097-9.485,5.2-10.617C392.329,278.161,399.984,280.616,405.473,281.844z"/>
					</g>
				</g>
				<g>
					<path style="fill:#FF7E68;" d="M405.545,279.87l-0.265,7.487c-68.345-15.455-142.011-9.87-204.964,20.053l-2.118-7.463       C308.023,224.958,405.545,279.87,405.545,279.87z"/>
				</g>
				<g>
					<path style="fill:#4F1F37;" d="M199.84,309.857c-0.313,0-0.616-0.162-0.783-0.451c-0.249-0.433-0.101-0.985,0.33-1.234       c0.446-0.256,45.295-25.731,111.45-29.211c69.527-3.679,92.952,8.995,93.916,9.535c0.434,0.245,0.589,0.792,0.346,1.227       c-0.242,0.437-0.793,0.592-1.228,0.348c-0.233-0.129-24.06-12.928-92.939-9.31c-65.7,3.458-110.2,28.719-110.642,28.975       C200.148,309.817,199.992,309.857,199.84,309.857z"/>
				</g>
			</g>
		</g>
		<g>
			<path style="fill:#6C92E5;" d="M258.431,394.196c0,0-2.456,53.251-6.139,56.525c-2.769,2.48-42.466,24.002-74.147,33.077     c-14.902-5.056-29.154-11.531-42.563-19.283c-0.867-0.481-1.709-0.987-2.576-1.517c-18.585-11.002-35.557-24.411-50.459-39.818     l50.507-65.866l1.228,1.637c0,0,123.739,13.096,124.558,18.85C259.659,383.532,258.431,394.196,258.431,394.196z"/>
		</g>
		<g>
			<g>
				<path style="fill:#FFA59A;" d="M259.022,386.178l-5.361,58.496c0,0,46.159,7.288,64.599,11.795      c18.44,4.507,52.04,15.161,54.909,13.112c2.868-2.049-27.454-17.62-27.454-17.62s52.45-4.098,52.45-9.425      c0-5.327-49.582-6.147-49.582-6.147s53.679-8.195,52.86-12.703c-0.819-4.507-54.499-6.556-54.499-6.556      s50.401-10.244,50.401-15.161c0-4.917-76.217-2.459-69.66-17.21c6.556-14.751,36.469-32.781,32.371-39.337      S259.022,386.178,259.022,386.178z"/>
			</g>
			<g>
				<g>
					<path style="fill:#4F1F37;" d="M163.349,477.155c-0.274,0-0.541,0-0.809-0.005c-0.333-0.005-0.598-0.277-0.594-0.611       c0.005-0.331,0.277-0.531,0.61-0.592c0.256,0.005,0.52,0.005,0.779,0.005c29.128,0,85.75-22.524,88.505-25.63       c2.292-2.581,5.057-44.325,6.375-72.071c-37.399-10.417-116.217-15.38-117.013-15.427c-0.331-0.021-0.583-0.308-0.563-0.639       c0.021-0.331,0.259-0.592,0.638-0.564c0.799,0.049,80.392,5.062,117.725,15.603c0.269,0.075,0.451,0.327,0.437,0.607       c-0.335,7.107-3.371,69.541-6.699,73.291C249.435,454.847,192.889,477.155,163.349,477.155z"/>
				</g>
				<g>
					<path style="fill:#4F1F37;" d="M154.203,363.324c-0.001,0-0.002,0-0.004,0c-0.333-0.002-0.601-0.273-0.598-0.607       c0.066-10.927,0.672-21.974,1.803-32.838c0.034-0.329,0.328-0.576,0.661-0.536c0.33,0.035,0.571,0.331,0.536,0.661       c-1.126,10.824-1.73,21.833-1.796,32.723C154.802,363.056,154.533,363.324,154.203,363.324z"/>
				</g>
			</g>
		</g>
	</g>
</g>















</svg>
